<?xml version="1.0" encoding="utf-8"?>
<!-- Generator: Adobe Illustrator 27.0.0, SVG Export Plug-In . SVG Version: 6.00 Build 0)  -->
<svg version="1.1" id="Layer_1" xmlns="http://www.w3.org/2000/svg" xmlns:xlink="http://www.w3.org/1999/xlink" x="0px" y="0px"
	 viewBox="0 0 15.6 12.49" style="enable-background:new 0 0 15.6 12.49;" xml:space="preserve">
<style type="text/css">
	.st0{fill:#7AC5EB;}
	.st1{fill:#CF382A;}
	.st2{fill:#1E3443;}
	.st3{fill:#67B5DD;}
	.st4{fill:#22414F;}
	.st5{fill:#C43021;}
	.st6{fill:#1C3240;}
	.st7{fill:#2A4A59;}
	.st8{fill:#FFFFFF;}
</style>
<g id="Layer_2_00000110433898399917882780000016662208662616533915_">
	<path class="st0" d="M12.13,4.46c-0.01-0.08-0.05-0.14-0.1-0.19C12.02,4.26,12.01,4.26,12,4.25c-0.04-0.03-0.09-0.05-0.14-0.06
		c-0.03,0-0.06,0-0.1,0c-0.01,0-0.02,0-0.04,0.01c0,0-0.01,0-0.01,0c-0.01,0-0.02,0-0.03,0c-0.01,0-0.01,0-0.02,0
		c-0.01,0-0.02,0-0.02,0c-0.01,0-0.01,0-0.02,0c-0.01,0-0.02,0-0.03,0c-0.01,0-0.01,0-0.02,0c-0.01,0-0.02,0-0.03,0
		c-0.01,0-0.03,0-0.04,0.01c-0.01,0-0.01,0-0.02,0c-0.01,0-0.02,0-0.03,0c-0.01,0-0.01,0-0.02,0c-0.01,0-0.02,0-0.03,0
		c-0.01,0-0.01,0-0.02,0c-0.01,0-0.02,0-0.04,0c0,0-0.01,0-0.01,0c-0.06,0.01-0.13,0.01-0.2,0.02l0,0c-0.02,0-0.03,0-0.05,0h0
		c-0.31,0.02-0.69,0.04-1.11,0.03C9.81,4.29,9.64,4.28,9.46,4.26C9.27,4.25,9.08,4.23,8.9,4.2c-0.04-0.21-0.1-0.41-0.19-0.6
		C8.64,3.44,8.45,3.36,8.28,3.43C8.11,3.51,7.86,3.61,7.55,3.72C7.5,3.73,7.45,3.75,7.4,3.77C7.36,3.78,7.33,3.79,7.29,3.8
		c-0.01,0-0.03,0.01-0.04,0.01c0,0-0.01,0-0.01,0c-0.01,0-0.02-0.01-0.03-0.01C7.07,3.76,6.92,3.82,6.84,3.93
		C6.81,3.94,6.77,3.95,6.74,3.96C6.64,3.98,6.54,4,6.43,4.03C6.36,4.04,6.28,4.06,6.19,4.07C6.16,4.08,6.12,4.09,6.08,4.1
		c0,0,0,0-0.01,0c-0.01,0-0.01,0-0.02,0C5.07,4.27,4.22,4.26,3.78,4.23c-0.18-0.01-0.33,0.13-0.34,0.3C3.33,6.6,5.57,8.92,6.82,8.87
		h0c0.02,0,0.04,0,0.06,0c0.02,0,0.04,0,0.05-0.01l0,0l0,0l0,0l0,0l0,0c0.04-0.01,0.09-0.02,0.14-0.04C7.1,8.81,7.13,8.79,7.16,8.78
		C7.24,8.74,7.32,8.7,7.39,8.64c0.03-0.02,0.07-0.05,0.1-0.08c0.03-0.03,0.07-0.06,0.1-0.09C7.62,8.45,7.65,8.43,7.68,8.4
		C7.7,8.38,7.72,8.36,7.73,8.34c0.03-0.03,0.05-0.06,0.08-0.09c0,0,0.01-0.01,0.01-0.01c0.28,0.35,0.59,0.61,0.88,0.75l0,0l0,0
		C8.72,8.99,8.74,9,8.75,9c0.01,0,0.02,0.01,0.02,0.01c0.01,0,0.02,0.01,0.03,0.01c0.01,0,0.02,0.01,0.02,0.01
		c0.01,0,0.02,0.01,0.04,0.01c0.01,0,0.01,0,0.02,0c0.02,0,0.03,0.01,0.05,0.01c0.01,0,0.01,0,0.02,0c0.01,0,0.03,0.01,0.04,0.01
		c0.01,0,0.01,0,0.02,0c0.02,0,0.03,0,0.05,0.01l0,0h0l0,0l0,0c0.34,0.03,0.75-0.15,1.16-0.47c0.04-0.03,0.07-0.06,0.11-0.09
		c0.05-0.04,0.11-0.09,0.16-0.14c0.02-0.02,0.04-0.03,0.05-0.05c0.07-0.07,0.14-0.14,0.21-0.21c0.07-0.07,0.14-0.15,0.2-0.23
		c0.03-0.04,0.07-0.08,0.1-0.12c0.4-0.52,0.75-1.14,0.95-1.79c0.05-0.17,0.09-0.34,0.12-0.51c0.01-0.07,0.02-0.14,0.03-0.2
		c0.01-0.1,0.02-0.2,0.02-0.31c0-0.03,0-0.07,0-0.1s0-0.07,0-0.1C12.15,4.66,12.14,4.56,12.13,4.46z"/>
	<path class="st1" d="M8.71,3.6C8.64,3.43,8.45,3.36,8.28,3.43C8.11,3.51,7.86,3.61,7.55,3.72C7.5,3.73,7.45,3.75,7.4,3.77
		C7.36,3.78,7.33,3.79,7.29,3.8c-0.01,0-0.03,0.01-0.04,0.01c0,0-0.01,0-0.01,0C7.58,3.93,8.17,4.1,8.9,4.2
		C8.85,3.99,8.79,3.79,8.71,3.6z"/>
	<path class="st1" d="M6.93,6.58C6.64,5.73,6.54,4.8,6.8,4.01c0.01-0.03,0.02-0.06,0.04-0.08C6.81,3.94,6.77,3.95,6.74,3.96
		C6.64,3.98,6.54,4,6.43,4.03C6.36,4.04,6.28,4.06,6.19,4.07C6.16,4.08,6.12,4.09,6.08,4.1c0,0,0,0-0.01,0c-0.01,0-0.01,0-0.02,0
		C5.07,4.27,4.22,4.26,3.78,4.23c-0.18-0.01-0.33,0.13-0.34,0.3C3.32,6.6,5.57,8.92,6.82,8.87h0c0.02,0,0.04,0,0.06,0
		c0.02,0,0.04,0,0.05-0.01l0,0l0,0l0,0l0,0l0,0c0.04-0.01,0.09-0.02,0.14-0.04C7.1,8.81,7.13,8.79,7.16,8.78
		C7.24,8.74,7.32,8.7,7.39,8.64c0.07-0.05,0.13-0.1,0.2-0.17C7.62,8.45,7.65,8.43,7.68,8.4C7.7,8.38,7.72,8.36,7.73,8.34
		c0.03-0.03,0.05-0.06,0.08-0.09c0,0,0.01-0.01,0.01-0.01c-0.25-0.32-0.49-0.7-0.68-1.12C7.06,6.94,6.99,6.76,6.93,6.58z"/>
	<path class="st2" d="M6.93,6.58C6.8,6.56,6.67,6.56,6.53,6.59c-0.01,0-0.03,0-0.04,0.01c-0.01,0-0.02,0-0.03,0.01l0,0
		C5.94,6.72,5.57,7.11,5.52,7.47l0,0c0.44-0.14,0.74-0.23,1.03-0.29h0c0.15-0.03,0.3-0.05,0.47-0.06l0,0c0.02,0,0.04,0,0.07-0.01
		c0,0,0.01,0,0.01,0c0.01,0,0.03,0,0.05,0C7.06,6.94,6.99,6.76,6.93,6.58z"/>
	<path class="st3" d="M12.16,4.76c0-0.1-0.01-0.2-0.03-0.3c-0.01-0.08-0.05-0.14-0.1-0.19C12.02,4.26,12.01,4.26,12,4.25
		c-0.04-0.03-0.09-0.05-0.14-0.06c-0.03,0-0.06,0-0.1,0c-0.01,0-0.02,0-0.04,0.01c0,0-0.01,0-0.01,0c-0.01,0-0.02,0-0.03,0
		c-0.01,0-0.01,0-0.02,0c-0.01,0-0.02,0-0.02,0c-0.01,0-0.01,0-0.02,0c-0.01,0-0.02,0-0.03,0c-0.01,0-0.01,0-0.02,0
		c-0.01,0-0.02,0-0.03,0c-0.01,0-0.03,0-0.04,0.01c-0.01,0-0.01,0-0.02,0c-0.01,0-0.02,0-0.03,0c-0.01,0-0.01,0-0.02,0
		c-0.01,0-0.02,0-0.03,0c-0.01,0-0.01,0-0.02,0c-0.01,0-0.02,0-0.04,0c0,0-0.01,0-0.01,0c-0.06,0.01-0.13,0.01-0.2,0.02l0,0
		c-0.02,0-0.03,0-0.05,0h0c-0.31,0.02-0.69,0.04-1.11,0.03L9.27,6.91L9.09,7.58c0.02,0,0.04,0.01,0.05,0.01
		c-0.02,0-0.04-0.01-0.05-0.01l-0.38,1.4l0,0C8.72,8.99,8.74,9,8.75,9c0.01,0,0.02,0.01,0.02,0.01c0.01,0,0.02,0.01,0.03,0.01
		c0.01,0,0.02,0.01,0.02,0.01c0.01,0,0.02,0.01,0.04,0.01c0.01,0,0.01,0,0.02,0c0.02,0,0.03,0.01,0.05,0.01c0.01,0,0.01,0,0.02,0
		c0.01,0,0.03,0.01,0.04,0.01c0.01,0,0.01,0,0.02,0c0.02,0,0.03,0,0.05,0.01l0,0h0l0,0l0,0c0.95,0.07,2.43-1.44,2.93-3.1
		c0.05-0.17,0.09-0.34,0.12-0.51c0.01-0.07,0.02-0.14,0.03-0.2c0.01-0.1,0.02-0.2,0.02-0.31c0-0.03,0-0.07,0-0.1
		C12.16,4.83,12.16,4.79,12.16,4.76z"/>
	<path class="st4" d="M10.3,6.89c-0.02,0-0.03,0-0.05,0c-0.01,0-0.03,0-0.04,0c-0.02,0-0.04,0-0.06,0c-0.01,0-0.01,0-0.02,0
		c-0.02,0-0.04,0-0.07,0c0,0-0.01,0-0.01,0c-0.02,0-0.05,0-0.07,0c0,0-0.01,0-0.01,0c-0.02,0-0.05,0-0.07,0l0,0
		c-0.02,0-0.05,0-0.07,0h0c-0.02,0-0.05,0-0.07,0h0c-0.02,0-0.04,0-0.07,0h0c-0.15,0-0.29,0-0.43-0.01C8.94,6.88,8.61,6.82,8.11,6.7
		c0.08,0.35,0.47,0.78,0.98,0.88c0,0,0,0,0.01,0c0,0,0,0-0.01,0c0.02,0,0.04,0.01,0.05,0.01l0,0c0.02,0,0.04,0,0.06,0.01
		c0.02,0,0.03,0,0.05,0c0.03,0,0.07,0,0.1,0c0.03,0,0.07-0.01,0.1-0.01C9.5,7.58,9.55,7.57,9.6,7.55c0.03-0.01,0.05-0.02,0.08-0.03
		C9.7,7.52,9.72,7.51,9.74,7.5c0.08-0.03,0.15-0.07,0.21-0.11c0.11-0.07,0.2-0.15,0.27-0.24c0.05-0.05,0.09-0.11,0.12-0.17
		c0.02-0.03,0.04-0.07,0.05-0.1C10.36,6.89,10.33,6.89,10.3,6.89z"/>
	<path class="st5" d="M8.9,4.2c-0.04-0.21-0.1-0.41-0.19-0.6C8.64,3.43,8.45,3.36,8.28,3.43C8.11,3.51,7.86,3.61,7.55,3.72
		C7.5,3.73,7.45,3.75,7.4,3.77C7.36,3.78,7.33,3.79,7.29,3.8c-0.01,0-0.03,0.01-0.04,0.01c0,0-0.01,0-0.01,0
		C7.58,3.93,8.17,4.09,8.9,4.2z"/>
	<path class="st5" d="M6.46,6.6c0.01,0,0.02-0.01,0.03-0.01c0.01,0,0.03-0.01,0.04-0.01c0.14-0.02,0.27-0.03,0.4-0.01
		C6.64,5.73,6.54,4.8,6.8,4.01c0.01-0.03,0.02-0.06,0.04-0.08C6.81,3.94,6.77,3.95,6.74,3.96C6.64,3.98,6.54,4,6.43,4.03
		C6.36,4.04,6.28,4.06,6.19,4.07C6.16,4.08,6.12,4.09,6.08,4.1c0,0,0,0-0.01,0c-0.01,0-0.01,0-0.02,0L6.46,6.6L6.46,6.6z"/>
	<path class="st5" d="M7.14,7.11c-0.02,0-0.03,0-0.05,0c0,0-0.01,0-0.01,0c-0.02,0-0.05,0-0.07,0.01l0,0
		C6.85,7.14,6.7,7.16,6.55,7.18h0l0.27,1.68h0c0.02,0,0.04,0,0.06,0c0.02,0,0.04,0,0.05-0.01l0,0l0,0l0,0l0,0l0,0
		c0.04-0.01,0.09-0.02,0.14-0.04C7.1,8.81,7.13,8.79,7.16,8.78C7.24,8.74,7.32,8.7,7.39,8.64c0.07-0.05,0.13-0.1,0.2-0.17
		C7.62,8.45,7.65,8.42,7.68,8.4C7.7,8.38,7.72,8.36,7.73,8.34c0.03-0.03,0.05-0.06,0.08-0.09c0,0,0.01-0.01,0.01-0.01
		C7.57,7.92,7.34,7.53,7.14,7.11z"/>
	<path class="st2" d="M6.46,6.6c0.01,0,0.02-0.01,0.03-0.01C6.48,6.6,6.47,6.6,6.46,6.6z"/>
	<path class="st2" d="M7.02,7.12L7.02,7.12L7.02,7.12z"/>
	<path class="st2" d="M7.1,7.11c0,0-0.01,0-0.01,0C7.09,7.11,7.09,7.11,7.1,7.11z"/>
	<path class="st2" d="M5.78,5.79L5.78,5.79C5.68,5.56,5.39,5.3,5.11,5.35C4.82,5.4,4.64,5.74,4.62,5.99
		C4.99,5.85,5.39,5.78,5.78,5.79z"/>
	<path class="st6" d="M6.53,6.59c-0.01,0-0.03,0-0.04,0.01c-0.01,0-0.02,0-0.03,0.01l0,0l0.09,0.58h0c0.15-0.03,0.3-0.05,0.47-0.06
		l0,0c0.02,0,0.04,0,0.07-0.01c0,0,0.01,0,0.01,0c0.01,0,0.03,0,0.05,0C7.06,6.94,6.99,6.76,6.93,6.58C6.8,6.56,6.67,6.56,6.53,6.59
		z"/>
	<path class="st7" d="M7.56,5.72L7.56,5.72c0.39-0.04,0.79,0,1.17,0.11l0,0C8.7,5.58,8.49,5.25,8.2,5.22
		C7.91,5.2,7.65,5.48,7.56,5.72z"/>
	<path class="st4" d="M11.03,5.83c0-0.01-0.01-0.02-0.01-0.02c-0.08-0.16-0.2-0.3-0.36-0.36c-0.01,0-0.02-0.01-0.03-0.01
		c-0.03-0.01-0.05-0.01-0.08-0.01C10.27,5.4,10,5.68,9.92,5.92c0.07-0.01,0.15-0.01,0.22-0.01c0.05,0,0.1,0,0.15,0
		c0.02,0,0.05,0,0.07,0c0.25,0.01,0.49,0.05,0.73,0.12l0,0C11.08,5.96,11.06,5.89,11.03,5.83z"/>
	<path class="st7" d="M9.09,7.58C9.09,7.58,9.09,7.58,9.09,7.58l0.18-0.67C8.94,6.88,8.61,6.82,8.11,6.7
		C8.19,7.06,8.58,7.49,9.09,7.58C9.09,7.58,9.09,7.58,9.09,7.58z"/>
	<path class="st8" d="M4.45,4.49c0,0-0.04,0.32-0.28,0.34c0.23,0.03,0.28,0.33,0.28,0.33S4.5,4.86,4.74,4.83
		C4.5,4.81,4.45,4.49,4.45,4.49z"/>
	<path class="st8" d="M9.81,8.11c0,0-0.03,0.23-0.2,0.25c0.17,0.02,0.2,0.24,0.2,0.24s0.03-0.22,0.2-0.24
		C9.85,8.34,9.81,8.11,9.81,8.11z"/>
	<path class="st8" d="M8.15,4.82c0,0,0.02-0.15,0.14-0.16C8.17,4.65,8.15,4.49,8.15,4.49S8.13,4.65,8.01,4.66
		C8.13,4.67,8.15,4.82,8.15,4.82z"/>
</g>
</svg>
